<svg width="310" height="250" viewBox="0 0 310 250" xmlns="http://www.w3.org/2000/svg" xmlns:xlink="http://www.w3.org/1999/xlink"><rect width="310" height="250" ry="0" fill="#fff"/><path d="M41.278 30.665c-47.755 8.967-39.813 56.072 10.349 53.39 6.83 17.915 37.593 23.984 54.143-.697 22.685 4.32 29.255-14.228 17.158-24.655 28.658-21.612 1.764-45.088-17.93-45.119C103.72.001 39.777-12.213 41.278 30.666z" fill="#9cd49c" stroke="#000" stroke-dashoffset="2.682" stroke-linejoin="round" stroke-miterlimit="2.5" stroke-width="1.537"/><g fill="none" stroke="#000" stroke-dashoffset="2.682" stroke-linejoin="round" stroke-miterlimit="2.5"><ellipse cx="38.387" cy="101.53" rx="9.638" ry="9.048" stroke-width=".751"/><ellipse cx="39.74" cy="127.22" rx="5.639" ry="6.011" stroke-width=".821"/><ellipse cx="50.966" cy="155.32" rx="49.728" ry="7.076" stroke-width="1.228"/></g><path d="M92.23 182.55c-.311-.311-.133-.83.286-.83.308 0 .414.119.37.414-.066.438-.413.659-.656.416" fill="#47c5f8"/><path d="m1.658 240.59-.033-66.398 99.329-.084-.664 66.482" fill="#5dcff0" stroke="#000" stroke-dashoffset="2.682" stroke-linejoin="round" stroke-miterlimit="2.5" stroke-width="1.13"/><ellipse cx="33.69" cy="146.63" rx="4.664" ry="3.947" fill="#fff" stroke="#000" stroke-dashoffset="2.682" stroke-linejoin="round" stroke-miterlimit="2.5" stroke-width=".818"/><g stroke-miterlimit="2.5"><g fill="#5dcff0" stroke="#000" stroke-dashoffset="2.682" stroke-linejoin="round"><ellipse cx="50.974" cy="240.59" rx="49.316" ry="8.566" stroke-width="1.328"/><path d="m1.625 174.19-.387-18.874m99.712 18.794-.26-18.79" stroke-width="1.13"/></g><path d="M25.27 210.77c-23.539-14.088-21.52-27.809 1.134-41.233 23.258-9.787 40.064-7.013 49.782 2.741 6.846 5.761 14.894 9.504 18.17 21.256.495 4.627.623 8.882 0 11.647-.64 2.813-.649 5.99-6.087 6.02L55.1 212.394c-9.645 2.327-19.205 5.493-29.83-1.623z" fill="#d2d2d4" stroke="#000" stroke-dashoffset="2.682" stroke-linejoin="round" stroke-width="1.13"/><g fill="none"><g stroke="#000" stroke-dashoffset="2.682" stroke-linejoin="round" stroke-width="1.13"><path d="M17.802 182.65c-6.93 8.894 3.059 8.62 4.04 7.735-.803 3.572-2.466 6.126-3.852 6.97l.131 3.244m36.364-11.309c-3.65-2.59-8.382-3.604-12.481-4.11-5.843 2.204-7.566 4.941-9.319 8.063l-4.067 7.375-1.836 11.097"/><path d="m69.243 205.32-12.623-.003c-4.579.405-5.717-2.847 2.833-9.19l.205-9.075 7.13-4.397.215-2.918-9.483 2.918c-6.116-.796-2.531-3.972-.302-6.815l1.107-7.798 2.525.676"/></g><path d="M88.816 204.9c.134-1.348-1.277-3.482-3.26-5.908l3.175-2.054c1.583-1.995.75-4.092.477-6.165l-3.896-4.077"/><path d="m67.566 194.79 4.093-1.003c9.028-5.068 3.502-8.979-1.247-8.12l-.624-3.01 7.732-5.72m-39.38 6.793 5.252-1.311c1.232-1.528 4.462-3.784-1.512-2.687h-9.71l3.588-3.105c4.09-2.706 3.72-4.31.302-5.16" stroke="#000" stroke-dashoffset="2.682" stroke-linejoin="round" stroke-width="1.13"/></g><g stroke="#000" stroke-dashoffset="2.682" stroke-linejoin="round"><path d="M55.101 212.39c3.03 6.73 8.484 10.35 14.143 13.708 3.79-.726 6.99-2.758 8.5-8.53l1.197-6.035" fill="#d2d2d4" stroke-width="1.13"/><ellipse cx="41.149" cy="223.04" rx="4.578" ry="4.499" fill="#877c80" stroke-width=".787"/><path d="m36.689 221.64 2.081-6.12" fill="none" stroke-width=".751"/></g></g><ellipse id="a" cx="31.786" cy="179.83" rx="3.325" ry="3.425"/><use transform="translate(20.801 -6.386)" xlink:href="#a"/><use transform="translate(33.848 14.574)" xlink:href="#a"/><use transform="translate(48.264 4.387)" xlink:href="#a"/><g fill="none" stroke="#000" stroke-dashoffset="2.682" stroke-linejoin="round" stroke-miterlimit="2.5" stroke-width="1.13"><path d="M31.898 178.07c6.544-14.872 19.048-27.904 55.861-33.43l8.902-.043c3.68 3.622 7.432 7.851 6.703 11.915"/><path d="m53.208 172.79 5.962-14.31c10.908-8.154 24.664-12.049 40.2-10.81"/><path d="M66.157 193.62c-.979-11.561-4.433-23.123 1.471-34.682 7.98-11.195 23.997-13.153 33.055-9.935"/><path d="M79.325 183.58c-1.067-6.775-4.059-13.514-3.169-20.326 4.687-6.708 9.171-13.595 21.785-13.3l4.004.584"/></g><g stroke="#000" stroke-dashoffset="2.682" stroke-linejoin="round" stroke-miterlimit="2.5"><g stroke-width="1.13"><path d="M36.689 221.64c1.04-3.06 7.821-3.06 9.038 1.407l6.804-9.723v-.077l-7.432 1.398-6.329.876" fill="#b3b2b1"/><path d="m172.01 117.77-18.382 17.3-4 60.724 21.622 4.83h4.904" fill="#d3d3d3"/><path d="M103.36 156.51c8.143 24.084-8.017 74.844 29.943 68.294 4.79-3.247 27.306 1.856 8.192-13.384l-7.177-8.2c-7.353-8.93-3.072-12.903 4.256-15.578h10.277l1.23 1.207" fill="none"/></g><rect x="171.25" y="114.46" width="104.8" height="86.166" ry="6.331" fill="#fff" stroke-width="1.126"/><path fill="#9cd49c" stroke-width="1.125" d="M179.5 121.36h88.304v65.341H179.5z"/></g><g id="b" fill="#d2d0d1" stroke="#000" stroke-dashoffset="2.682" stroke-linejoin="round" stroke-miterlimit="2.5" stroke-width=".93"><circle cx="226.8" cy="134.11" r="5.2"/><path d="m220.65 154.11-.299 4.702-11.009 17.42 5.052 4.663 3.372-.49-1.294-3.118 12.967-18.01-.496-6.893-.542-.413-.067-9.494-4.3-4.024"/><path d="m224.04 138.45-9.17 7.7-.466 2.802 10.062 6.677 1.843-4.061-5.654-4.456 2.638-2.06m5.067.458 5.18-1.21 1.046 3.537-6.197 1.853"/><ellipse cx="235.86" cy="145.26" rx="2" ry="2.3"/><path d="m225.69 165.35 5.766 2.096-.077 10.566 6.389 2.649 2.331-2.858-4.942-1.63 1.679-10.416-7.385-6.72"/><ellipse cx="227.55" cy="154.1" rx="2" ry="2.3"/></g><use transform="matrix(1.5229 0 0 1.4779 -269.58 -183.21)" xlink:href="#b"/><g stroke="#000" stroke-dashoffset="2.682" stroke-linejoin="round" stroke-miterlimit="2.5" stroke-width=".93"><path d="m194.99 210.89-2.894 12.092 39.364 13.555 75.936-30.263" fill="#d3d3d1"/><path d="m195.3 210.59 89.438-19.192 23.082 14.854-75.708 27.228z" fill="#fefefe"/><path id="c" d="m208.16 212.43 7.007 4.718 3.58-1.35" fill="none" stroke="#000" stroke-dashoffset="2.682" stroke-linejoin="round" stroke-miterlimit="2.5" stroke-width=".93"/></g><use transform="translate(10.818 -2.688)" xlink:href="#c"/><use transform="translate(13.509 8.744)" xlink:href="#c"/><use transform="translate(21.862 5.228)" xlink:href="#c"/><use transform="matrix(.88615 0 0 .83058 44.981 31.714)" xlink:href="#c"/><use transform="matrix(.86712 0 0 .7669 60.441 53.425)" xlink:href="#c"/><use transform="matrix(.94124 0 0 .9006 42.674 14.021)" xlink:href="#c"/><use transform="matrix(.81507 0 0 .8204 80.569 38.978)" xlink:href="#c"/><use transform="matrix(.77152 0 0 .63417 89.356 69.411)" xlink:href="#c"/><use transform="matrix(.71285 0 0 .67413 112.7 68.467)" xlink:href="#c"/><use transform="matrix(.75939 0 0 .69643 100.49 54.296)" xlink:href="#c"/><use transform="matrix(.74014 0 0 .5756 114.63 87.41)" xlink:href="#c"/><use transform="matrix(.79825 0 0 .61015 100.2 69.587)" xlink:href="#c"/><use transform="matrix(.89466 0 0 .71517 88.231 53.285)" xlink:href="#c"/><use transform="matrix(.80638 0 0 .60677 106.18 68.34)" xlink:href="#c"/><use transform="matrix(.79783 0 0 .74922 116.58 43.972)" xlink:href="#c"/><use transform="matrix(.78582 0 0 .77365 117.31 30.539)" xlink:href="#c"/><use transform="matrix(.74491 0 0 .59897 134.86 74.398)" xlink:href="#c"/></svg>